<svg height="512pt" viewBox="-57 0 512 512" width="512pt" xmlns="http://www.w3.org/2000/svg"><path d="m225.761719 180.992188c0 38.929687-31.558594 70.492187-70.492188 70.492187-38.933593 0-70.492187-31.5625-70.492187-70.492187 0-38.933594 31.558594-70.496094 70.492187-70.496094 38.933594 0 70.492188 31.5625 70.492188 70.496094zm0 0" fill="#ffb44d"/><path d="m155.269531 220.996094c-22.058593 0-40.003906-17.949219-40.003906-40.003906 0-22.058594 17.945313-40.003907 40.003906-40.003907 22.058594 0 40.003907 17.945313 40.003907 40.003907 0 22.054687-17.945313 40.003906-40.003907 40.003906zm0 0" fill="#ffe76c"/><path d="m356 70.492188c0 38.933593-31.558594 70.496093-70.492188 70.496093-38.933593 0-70.492187-31.5625-70.492187-70.496093 0-38.929688 31.558594-70.492188 70.492187-70.492188 38.933594 0 70.492188 31.5625 70.492188 70.492188zm0 0" fill="#ffb44d"/><path d="m285.507812 110.496094c-22.058593 0-40.003906-17.945313-40.003906-40.003906 0-22.058594 17.945313-40.003907 40.003906-40.003907 22.058594 0 40.003907 17.945313 40.003907 40.003907 0 22.058593-17.945313 40.003906-40.003907 40.003906zm0 0" fill="#ffe76c"/><path d="m57.894531 276.722656 141.039063 21.425782 141.113281-21.425782c3.992187-5.484375 6.984375-11.15625 9.175781-16.773437 9.5-24.371094.167969-52.0625-21.933594-66.054688-15.671874-9.917969-35.65625-9.917969-51.324218 0-15.671875 9.917969-35.65625 9.917969-51.324219 0-15.671875-9.917969-35.652344-9.917969-51.324219 0-15.667968 9.917969-35.652344 9.917969-51.324218 0-15.667969-9.917969-35.652344-9.917969-51.324219 0l-.015625.011719c-21.640625 13.695312-31.285156 40.652344-22.433594 64.6875 2.230469 6.054688 5.359375 12.203125 9.675781 18.128906zm0 0" fill="#1fd7c3"/><path d="m88.800781 276.722656c-4.316406-5.929687-7.445312-12.074218-9.675781-18.128906-8.851562-24.035156.792969-50.992188 22.433594-64.6875l.015625-.011719c3.242187-2.050781 6.675781-3.652343 10.210937-4.855469-13.550781-4.613281-28.6875-3.011718-41.117187 4.855469l-.015625.011719c-21.640625 13.695312-31.285156 40.652344-22.433594 64.6875 2.230469 6.054688 5.359375 12.203125 9.675781 18.128906l141.039063 21.425782 15.457031-2.347657zm0 0" fill="#00bbc9"/><path d="m397.847656 412.421875c-1.6875-38.03125-23.972656-74.964844-57.800781-92.851563l-141.078125-21.421874-141.074219 21.421874c-33.828125 17.886719-56.113281 54.820313-57.800781 92.851563-.425781 9.652344.609375 18.917969 2.863281 27.742187 10.863281 42.527344 49.839844 71.835938 93.734375 71.835938h204.558594c43.894531 0 82.871094-29.308594 93.734375-71.835938 2.253906-8.824218 3.289063-18.089843 2.863281-27.742187zm0 0" fill="#1fd7c3"/><path d="m33.859375 440.164062c-2.253906-8.824218-3.289063-18.089843-2.859375-27.742187 1.6875-38.03125 23.972656-74.964844 57.796875-92.851563l125.625-19.078124-15.453125-2.34375-141.074219 21.421874c-33.828125 17.886719-56.113281 54.816407-57.800781 92.851563-.425781 9.652344.609375 18.917969 2.863281 27.742187 10.863281 42.527344 49.839844 71.835938 93.734375 71.835938h30.902344c-43.890625 0-82.867188-29.308594-93.734375-71.835938zm0 0" fill="#00bbc9"/><path d="m340.046875 276.722656h-282.152344c-11.832031 0-21.421875 9.59375-21.421875 21.425782 0 11.828124 9.589844 21.421874 21.421875 21.421874h282.152344c11.832031 0 21.421875-9.59375 21.421875-21.421874 0-11.832032-9.589844-21.425782-21.421875-21.425782zm0 0" fill="#ffe76c"/><path d="m67.378906 298.148438c0-11.832032 9.589844-21.421876 21.421875-21.421876h-30.90625c-11.832031 0-21.421875 9.589844-21.421875 21.421876 0 11.832031 9.589844 21.421874 21.421875 21.421874h30.90625c-11.832031 0-21.421875-9.59375-21.421875-21.421874zm0 0" fill="#ffb44d"/><g fill="#444f5c"><path d="m110.421875 416.535156c-4.269531 0-7.726563-3.457031-7.726563-7.726562v-16.023438c0-4.269531 3.457032-7.726562 7.726563-7.726562 4.265625 0 7.726563 3.457031 7.726563 7.726562v16.023438c0 4.269531-3.460938 7.726562-7.726563 7.726562zm0 0"/><path d="m287.519531 416.535156c-4.269531 0-7.726562-3.457031-7.726562-7.726562v-16.023438c0-4.269531 3.457031-7.726562 7.726562-7.726562s7.726563 3.457031 7.726563 7.726562v16.023438c0 4.269531-3.457032 7.726562-7.726563 7.726562zm0 0"/><path d="m198.96875 425.089844c-10.746094 0-20.832031-4.488282-27.671875-12.3125-2.808594-3.210938-2.480469-8.09375.734375-10.902344s8.09375-2.480469 10.902344.734375c3.902344 4.464844 9.75 7.027344 16.035156 7.027344 6.289062 0 12.136719-2.5625 16.039062-7.027344 2.808594-3.214844 7.691407-3.542969 10.902344-.734375 3.210938 2.808594 3.542969 7.691406.734375 10.902344-6.839843 7.824218-16.925781 12.3125-27.675781 12.3125zm0 0"/></g></svg>