<?xml version="1.0" ?><svg enable-background="new 0 0 515.91 728.5" height="512" id="Layer_1" version="1.1" viewBox="0 0 512.00003 512" width="512" xml:space="preserve" xmlns="http://www.w3.org/2000/svg" xmlns:cc="http://creativecommons.org/ns#" xmlns:dc="http://purl.org/dc/elements/1.1/" xmlns:inkscape="http://www.inkscape.org/namespaces/inkscape" xmlns:rdf="http://www.w3.org/1999/02/22-rdf-syntax-ns#" xmlns:sodipodi="http://sodipodi.sourceforge.net/DTD/sodipodi-0.dtd" xmlns:svg="http://www.w3.org/2000/svg"><defs id="defs7"/><g id="g6754" transform="translate(212.70365,-241.56789)"><path d="m -733.62329,72.267944 c 0,203.804876 -165.21649,369.021366 -369.02141,369.021366 -203.8048,0 -369.0213,-165.21649 -369.0213,-369.021366 0,-203.804874 165.2165,-369.021364 369.0213,-369.021364 203.80492,0 369.02141,165.21649 369.02141,369.021364 z" id="path5056" style="fill:#188fd1;fill-opacity:1;fill-rule:nonzero;stroke:none" transform="matrix(0.69372682,0,0,0.69372682,808.23053,447.43368)"/><g id="g4286" transform="matrix(0.86250014,0,0,0.86250014,-1827.2509,77.530365)"><path d="m 2168.7499,286.98319 c -110.4604,0 -199.9999,89.57178 -199.9999,200.03359 0,110.45965 89.5385,199.99999 199.9999,199.99999 110.4609,0 200.0001,-89.53926 200.0001,-199.99999 0,-110.46181 -89.5392,-200.03359 -200.0001,-200.03359 z m 0,21.36379 c 34.7681,0 67.2135,9.92758 94.6592,27.10783 l -9.2375,14.54484 c -0.9653,1.51992 -0.5536,3.51844 0.9405,4.46758 1.4941,0.94915 3.5046,0.51005 4.4675,-1.00772 l 9.204,-14.51125 c 36.4982,24.70997 63.376,62.58622 73.8326,106.78535 l -14.1752,3.12395 c -1.7835,0.39664 -2.9031,2.13557 -2.5194,3.86295 0.3859,1.72737 2.1155,2.81518 3.8966,2.41854 l 14.1417,-3.15754 c 2.2521,11.3263 3.4599,23.04682 3.4599,35.03527 0,34.01222 -9.4995,65.78327 -25.9993,92.84514 l -13.0669,-8.29694 c -1.5381,-0.97817 -3.55,-0.54928 -4.5011,0.94054 -0.9494,1.49305 -0.4625,3.4905 1.0749,4.46759 l 13.0333,8.29694 c -24.4309,37.02089 -62.2558,64.39342 -106.5839,75.24353 l -3.7622,-16.79543 c -0.3923,-1.7693 -2.103,-2.90198 -3.8293,-2.51931 -1.7253,0.38589 -2.8131,2.12724 -2.4186,3.89654 l 3.7622,16.86261 c -11.7444,2.42929 -23.9151,3.695 -36.379,3.695 -34.0722,0 -65.92,-9.5476 -93.013,-26.10011 l 10.4803,-16.45952 c 0.9675,-1.51669 0.5165,-3.51844 -0.974,-4.46758 -1.4934,-0.947 -3.4691,-0.47753 -4.434,1.04131 l -10.4468,16.45953 c -37.3853,-24.7218 -64.9427,-63.11347 -75.5123,-108.06181 l 17.0977,-3.82936 c 1.7812,-0.39449 2.9031,-2.10413 2.5194,-3.82935 -0.3859,-1.72631 -2.1471,-2.81626 -3.9301,-2.41855 l -17.0306,3.79577 c -2.2219,-11.25321 -3.3927,-22.86087 -3.3927,-34.76654 0,-34.82916 9.9714,-67.34914 27.2085,-94.82701 l 14.7129,9.37185 c 1.5347,0.97817 3.5531,0.55036 4.5011,-0.94054 0.9494,-1.49305 0.4625,-3.49049 -1.0749,-4.46758 l -14.6456,-9.30467 c 25.0035,-36.85859 63.4136,-63.89493 108.2298,-74.06786 l 3.6949,16.62748 c 0.3936,1.77037 2.1032,2.90306 3.8295,2.51932 1.7272,-0.38482 2.8128,-2.12617 2.4185,-3.89654 l -3.6614,-16.5603 c 10.834,-2.052 21.9925,-3.12395 33.4228,-3.12395 z" id="path3395-4" style="fill:#ffffff;fill-opacity:1;fill-rule:nonzero;stroke:none"/><path d="m 2273.1562,355.40625 -122.8124,115.1875 -0.5938,0.59375 -0.7188,1.1875 -87.4062,145.25 122.8125,-115.1875 0.625,-0.59375 0.7187,-1.15625 87.375,-145.28125 z M 2166.125,471.6875 c 8.4436,-0.37729 15.5914,6.14928 15.9688,14.59375 0.3782,8.44232 -6.1826,15.62378 -14.625,16 -8.4444,0.37729 -15.5603,-6.18267 -15.9376,-14.625 -0.3773,-8.44232 6.1506,-15.59038 14.5938,-15.96875 z" id="path3391-8" style="fill:#ffffff;fill-opacity:1;fill-rule:nonzero;stroke:none"/></g></g><path d="m 74.980696,437.01935 c 99.974224,99.97422 262.064454,99.97422 362.038674,0 99.97421,-99.97422 99.97422,-262.06445 0,-362.03867 L 74.980696,437.01935 z" id="path3752" style="fill:#000000;fill-opacity:0.30366492;fill-rule:nonzero;stroke:none"/></svg>